# xmcd
#
# Track frame offsets:
#	150
#	10497
#	28518
#	42693
#	53066
#	70327
#	120806
#	139231
#
# Disc length: 2121 seconds
#
# Revision: 0
# Processed by: cddbd v1.5.1PL0 Copyright (c) Steve Scherf et al.
# Submitted via: EasyCDDAExtractor 8.0.2.1
#
DISCID=6b084708
DTITLE=Danny Davis - Danny Davis And The Nashville Brass
DYEAR=2004
DGENRE=Acid
TTITLE0=Columbus Stockade Blues
TTITLE1=I Love You Because-Maiden's Prayer
TTITLE2=Kaw-Liga
TTITLE3=Wabash Cannonball
TTITLE4=Foggy Mountain Breakdown
TTITLE5=Music City Montage
TTITLE6=From Dixie With Love 
TTITLE7=I Saw The Light
EXTD=
EXTT0=
EXTT1=
EXTT2=
EXTT3=
EXTT4=
EXTT5=
EXTT6=
EXTT7=
PLAYORDER=
